<?xml version="1.0"?>

<!DOCTYPE svg PUBLIC '-//W3C//DTD SVG 1.0//EN' 'http://www.w3.org/TR/2001/REC-SVG-20010904/DTD/svg10.dtd'>
<svg fill-opacity="1" xmlns:xlink="http://www.w3.org/1999/xlink" color-rendering="auto" color-interpolation="auto" stroke="black" text-rendering="auto" stroke-linecap="square" width="315" stroke-miterlimit="10" stroke-opacity="1" shape-rendering="auto" fill="black" stroke-dasharray="none" font-weight="normal" stroke-width="1" height="400" xmlns="http://www.w3.org/2000/svg" font-family="&apos;Dialog&apos;" font-style="normal" stroke-linejoin="miter" font-size="12" stroke-dashoffset="0" image-rendering="auto">
  <!--Generated by Marvin with Batik SVG Generator
MolSource:
<?xml version="1.0" encoding="MacRoman"?><cml xmlns="http://www.chemaxon.com" xmlns:xsi="http://www.w3.org/2001/XMLSchema-instance" xsi:schemaLocation="http://www.chemaxon.com/marvin/help/formats/schema/mrvSchema_6_2_0.xsd" version="ChemAxon file format v6.2, generated by v6.2.0">
<MDocument atomSetFont="0:Arial-PLAIN-18" bondSetLineThickness="0:0.06"><MChemicalStruct><molecule molID="m1"><atomArray><atom id="a1" elementType="R" rgroupRef="0" x2="-5.719999790191650" y2="-0.2750000059604645" ligandOrder="a2"></atom><atom id="a2" elementType="C" x2="-4.386320668363615" y2="0.49499999403953543"></atom><atom id="a3" elementType="H" x2="-3.052641546535579" y2="-0.2750000059604646"></atom><atom id="a4" elementType="O" x2="-4.386320668363615" y2="2.0349999940395356"></atom></atomArray><bondArray><bond id="b1" atomRefs2="a1 a2" order="1"></bond><bond id="b2" atomRefs2="a2 a3" order="1"></bond><bond id="b3" atomRefs2="a2 a4" order="2"></bond></bondArray></molecule></MChemicalStruct></MDocument>
</cml>-->
  <defs id="genericDefs" />
  <g>
    <defs id="defs1">
      <clipPath clipPathUnits="userSpaceOnUse" id="clipPath1">
        <path d="M0 0 L315 0 L315 400 L0 400 L0 0 Z" />
      </clipPath>
      <clipPath clipPathUnits="userSpaceOnUse" id="clipPath2">
        <path d="M172.125 39 C185.58694458007812 39 196.5 51.759883880615234 196.5 67.5 L196.5 109.30000305175781 C196.5 125.04011535644531 185.58694458007812 137.8000030517578 172.125 137.8000030517578 L149.375 137.8000030517578 C135.91305541992188 137.8000030517578 125 125.04011535644531 125 109.30000305175781 L125 67.5 C125 51.759883880615234 135.91305541992188 39 149.375 39 ZM49.224998474121094 251 C61.85851287841797 251 72.0999984741211 263.7598876953125 72.0999984741211 279.5 L72.0999984741211 321.29998779296875 C72.0999984741211 337.0401306152344 61.85851287841797 349.79998779296875 49.224998474121094 349.79998779296875 L27.875 349.79998779296875 C15.241486549377441 349.79998779296875 5 337.0401306152344 5 321.29998779296875 L5 279.5 C5 263.7598876953125 15.241486549377441 251 27.875 251 ZM0 0 L0 400 L315 400 L315 330.05657958984375 L315 330.05657958984375 C312.0343933105469 341.51251220703125 303.406494140625 349.79998779296875 293.2250061035156 349.79998779296875 L271.875 349.79998779296875 C259.2414855957031 349.79998779296875 249 337.0401306152344 249 321.29998779296875 L249 279.5 C249 263.7598876953125 259.2414855957031 251 271.875 251 L293.2250061035156 251 C303.4065246582031 251 312.034423828125 259.2874755859375 315 270.7434387207031 L315 270.7434387207031 L315 0 Z" />
      </clipPath>
    </defs>
    <g text-rendering="optimizeLegibility" font-size="84" shape-rendering="geometricPrecision" font-family="&apos;Arial&apos;">
      <text xml:space="preserve" x="5" y="327" clip-path="url(#clipPath1)" stroke="none">R
      </text>
      <text xml:space="preserve" x="249" y="327" clip-path="url(#clipPath1)" stroke="none">H
      </text>
      <text xml:space="preserve" x="125" y="115" clip-path="url(#clipPath1)" stroke="none">O
      </text>
      <line stroke-linecap="round" clip-path="url(#clipPath2)" fill="none" x1="68.96193890728651" x2="157.5" y1="278.166588862486" stroke-linejoin="bevel" y2="227.04911545708038" stroke-width="5.498408794403076" />
      <line stroke-linecap="round" clip-path="url(#clipPath2)" fill="none" x1="157.5" x2="246.03806109271343" y1="227.04911545708038" stroke-linejoin="bevel" y2="278.16658886248604" stroke-width="5.498408794403076" />
      <line stroke-linecap="round" clip-path="url(#clipPath2)" fill="none" x1="144.79867622015357" x2="144.79867622015357" y1="234.38222816043927" stroke-linejoin="bevel" y2="124.81416864626911" stroke-width="5.498408794403076" />
      <line stroke-linecap="round" clip-path="url(#clipPath2)" fill="none" x1="170.20132377984643" x2="170.20132377984643" y1="234.38222816043933" stroke-linejoin="bevel" y2="124.81416864626911" stroke-width="5.498408794403076" />
    </g>
  </g>
</svg>
