<svg version="1.1" viewBox="0.0 0.0 595.4540682414698 386.3070866141732" fill="none" stroke="none" stroke-linecap="square" stroke-miterlimit="10" xmlns:xlink="http://www.w3.org/1999/xlink" xmlns="http://www.w3.org/2000/svg"><clipPath id="p.0"><path d="m0 0l595.45404 0l0 386.3071l-595.45404 0l0 -386.3071z" clip-rule="nonzero"/></clipPath><g clip-path="url(#p.0)"><path fill="#000000" fill-opacity="0.0" d="m0 0l595.45404 0l0 386.3071l-595.45404 0z" fill-rule="evenodd"/><path fill="#cfe2f3" d="m0 186.7874l0 0c0 -103.15983 69.5827 -186.7874 155.41733 -186.7874l0 0c41.21924 0 80.75023 19.67933 109.89664 54.708763c29.146393 35.029434 45.52069 82.53954 45.52069 132.07864l0 0c0 103.159836 -69.58272 186.7874 -155.41733 186.7874l0 0c-85.834625 0 -155.41733 -83.62756 -155.41733 -186.7874z" fill-rule="evenodd"/><path stroke="#000000" stroke-width="1.0" stroke-linejoin="round" stroke-linecap="butt" d="m0 186.7874l0 0c0 -103.15983 69.5827 -186.7874 155.41733 -186.7874l0 0c41.21924 0 80.75023 19.67933 109.89664 54.708763c29.146393 35.029434 45.52069 82.53954 45.52069 132.07864l0 0c0 103.159836 -69.58272 186.7874 -155.41733 186.7874l0 0c-85.834625 0 -155.41733 -83.62756 -155.41733 -186.7874z" fill-rule="evenodd"/><path fill="#ff9900" d="m25.283464 120.30971l0 0c0 -12.672104 22.216547 -22.944878 49.622047 -22.944878l0 0c27.405502 0 49.622047 10.272774 49.622047 22.944878l0 0c0 12.672119 -22.216545 22.944885 -49.622047 22.944885l0 0c-27.405499 0 -49.622047 -10.272766 -49.622047 -22.944885z" fill-rule="evenodd"/><path stroke="#000000" stroke-width="1.0" stroke-linejoin="round" stroke-linecap="butt" d="m25.283464 120.30971l0 0c0 -12.672104 22.216547 -22.944878 49.622047 -22.944878l0 0c27.405502 0 49.622047 10.272774 49.622047 22.944878l0 0c0 12.672119 -22.216545 22.944885 -49.622047 22.944885l0 0c-27.405499 0 -49.622047 -10.272766 -49.622047 -22.944885z" fill-rule="evenodd"/><path fill="#000000" fill-opacity="0.0" d="m29.963255 104.86089l99.244095 0l0 45.889763l-99.244095 0z" fill-rule="evenodd"/><path fill="#000000" d="m42.900753 131.62463l13.953125 0l0 1.203125l-13.953125 0l0 0.59375l-1.484375 0l0 -9.359367l1.40625 0q0.59375 0.078125 0.078125 0.4375l0 7.1249924zm8.09375 -12.171867l2.734375 0l0 -1.546875l-2.734375 0l0 1.546875zm-1.265625 0l0 -1.546875l-2.671875 0l0 1.546875l2.671875 0zm-3.9375 0l0 -1.546875l-2.75 0l0 1.546875l2.75 0zm-4.234375 0.890625l0 -3.328125l13.65625 0l0 3.328125l-5.859375 0l0 1.046875l7.34375 0l0 1.1875l-7.34375 0l0 1.03125l4.609375 0l0 7.1249924l-9.28125 0l0 -7.1249924l3.1875 0l0 -1.03125l-8.015625 0l0 -1.1875l8.015625 0l0 -1.046875l-3.109375 0l-3.203125 0zm11.140625 5.28125l0 -1.125l-6.75 0l0 1.125l6.75 0zm0 2.078125l0 -1.1875l-6.75 0l0 1.1875l6.75 0zm0 2.1406174l0 -1.25l-6.75 0l0 1.25l6.75 0z" fill-rule="nonzero"/><path fill="#000000" d="m61.541378 118.51527q0 -1.015625 -0.078125 -1.890625l1.453125 0q-0.140625 0.796875 -0.140625 1.890625l0 2.1875q0.796875 0 1.8906288 -0.078125l0 1.171875q1.234375 -1.234375 2.03125 -2.546875q0.8125 -1.3125 1.25 -2.625q0.578125 0.359375 1.53125 0.734375q-0.4375 0.421875 -1.015625 1.453125l5.015625 0q-1.453125 2.03125 -2.171875 3.28125l2.984375 0l0 4.875q0.796875 0 1.59375 -0.0625l0 1.2343674q-1.234375 -0.078125 -2.03125 -0.078125l-2.765625 0q0.65625 1.671875 2.140625 2.765625q1.5 1.09375 2.65625 1.390625q-0.796875 0.65625 -1.09375 1.390625q-1.15625 -0.515625 -2.46875 -1.71875q-1.3125 -1.203125 -2.265625 -3.03125q-1.09375 2.78125 -5.53125 4.75q-0.21875 -0.59375 -0.9531288 -1.25q2.1093788 -0.578125 3.5312538 -1.8125q1.421875 -1.25 1.859375 -2.484375l-3.28125 0q-0.4375 0 -1.59375 0.078125l0 -1.2343674q1.09375 0.0625 1.671875 0.0625l0 -2.984375q0 -1.09375 -0.078125 -1.390625l-0.28125 0.375q-0.4375 -0.515625 -1.09375 -0.875l0.28125 -0.21875q-1.0156288 -0.078125 -1.8125038 -0.078125l0 3.140625q0.796875 -0.375 1.5937538 -0.875q0.078125 0.578125 0.21875 1.234375q-0.7187538 0.359375 -1.8125038 0.953125l0 5.3906174q0 0.9375 -0.546875 1.296875q-0.546875 0.375 -2.15625 0.59375q-0.0625 -0.65625 -0.578125 -1.53125q1.53125 0.078125 1.78125 -0.078125q0.265625 -0.140625 0.265625 -0.578125l0 -4.5156174q-1.25 0.65625 -2.046875 1.15625q-0.296875 -0.65625 -0.796875 -1.296875q1.8125 -0.65625 2.84375 -1.171875l0 -3.71875q-1.609375 0 -2.703125 0.078125l0 -1.25q1.015625 0.078125 2.703125 0.078125l0 -2.1875zm11.500004 8.453125l0 -3.78125l-2.328125 0q0 1.890625 -0.140625 3.78125l2.46875 0zm-3.859375 0q0.15625 -1.890625 0.21875 -3.78125l-2.40625 0l0 3.78125l2.1875 0zm-1.3125 -7.140625q-0.9375 1.390625 -1.75 2.265625l3.796875 0l1.3125 -2.265625l-3.359375 0z" fill-rule="nonzero"/><path fill="#000000" d="m81.88513 123.68714l0 1.046875q0 5.4843674 -2.8125 8.093742l-1.1875 -1.203125q2.515625 -2.8125 2.515625 -6.8281174l0 -7.046875l12.84375 0l0 1.40625l-11.359375 0l0 3.125l8.46875 0l0.4375 -0.375l1.265625 0.96875q0.515625 0.21875 -0.140625 0.515625q-1.1875 3.9375 -2.96875 5.7187424q1.546875 1.265625 5.484375 2.296875l-0.8125 1.78125q-3.640625 -1.109375 -5.859375 -2.890625q-2.609375 2.15625 -5.875 3.046875l-0.65625 -1.71875q3.328125 -0.8125 5.265625 -2.4375q-2.234375 -2.3749924 -3.125 -5.4999924l-1.484375 0zm5.796875 4.4531174q1.5625 -1.6249924 2.453125 -4.4531174l-5.203125 0q0.8125 2.453125 2.75 4.4531174z" fill-rule="nonzero"/><path fill="#000000" d="m105.90076 116.40589q0.5 1.3125 0.9375 2.546875l2.625 0q1.53125 0 3.203125 -0.078125l0 1.3125q-1.671875 -0.0625 -3.203125 -0.0625l-9.546875 0q0 4.296875 -0.140625 6.125q-0.140625 1.8124924 -0.546875 3.7187424q-0.40625 1.890625 -1.421875 3.640625q-0.515625 -0.65625 -1.3125 -1.09375q0.953125 -1.25 1.453125 -3.46875q0.515625 -2.2187424 0.578125 -4.7656174q0.078125 -2.5625 0.015625 -5.328125l6.546875 0q-0.21875 -1.015625 -0.71875 -2.03125q0.71875 -0.15625 1.53125 -0.515625zm6.109375 6.265625q-0.71875 1.609375 -1.265625 3.140625q-0.546875 1.515625 -2.15625 5.3124924l2.046875 0q1.015625 0 2.25 -0.078125l0 1.53125q-1.234375 -0.0625 -2.25 -0.0625l-7.796875 0q-1.25 0 -2.984375 0.0625l0 -1.53125q1.671875 0.078125 2.984375 0.078125l4.296875 0q1.09375 -2.265625 1.921875 -4.7343674q0.84375 -2.484375 1.203125 -4.375q0.953125 0.515625 1.75 0.65625zm-10.265625 0.796875q1.890625 3.0 2.84375 5.2499924q-0.515625 0.296875 -1.25 0.734375q-1.453125 -3.2812424 -2.765625 -5.1718674q0.65625 -0.515625 1.171875 -0.8125zm3.5 -1.671875q1.453125 2.546875 2.546875 5.03125q-0.65625 0.359375 -1.390625 0.71875q-0.875 -2.46875 -2.328125 -5.09375q0.578125 -0.21875 1.171875 -0.65625z" fill-rule="nonzero"/><path fill="#ffff00" d="m187.24336 119.80577l0 0c0 -12.672104 22.216553 -22.944878 49.622055 -22.944878l0 0c27.405487 0 49.62204 10.272774 49.62204 22.944878l0 0c0 12.672119 -22.216553 22.944885 -49.62204 22.944885l0 0c-27.405502 0 -49.622055 -10.272766 -49.622055 -22.944885z" fill-rule="evenodd"/><path stroke="#000000" stroke-width="1.0" stroke-linejoin="round" stroke-linecap="butt" d="m187.24336 119.80577l0 0c0 -12.672104 22.216553 -22.944878 49.622055 -22.944878l0 0c27.405487 0 49.62204 10.272774 49.62204 22.944878l0 0c0 12.672119 -22.216553 22.944885 -49.62204 22.944885l0 0c-27.405502 0 -49.622055 -10.272766 -49.622055 -22.944885z" fill-rule="evenodd"/><path fill="#000000" fill-opacity="0.0" d="m180.70341 104.86089l134.83464 0l0 30.897636l-134.83464 0z" fill-rule="evenodd"/><path fill="#000000" d="m200.84404 130.73401q1.40625 0.59375 4.8125 0.96875l-0.59375 1.640625q-3.484375 -0.453125 -5.40625 -1.5625q-2.234375 1.34375 -5.875 1.703125l-0.515625 -1.484375q3.125 -0.296875 5.203125 -1.265625q-0.96875 -0.890625 -1.484375 -1.84375q-1.265625 1.40625 -2.671875 2.078125l-0.890625 -1.265625q2.734375 -1.484375 3.921875 -3.6406174l-1.625 0l0 -4.59375l-1.5625 1.546875l-1.1875 -1.03125q2.453125 -2.234375 3.71875 -5.5625l1.484375 0.59375q0.296875 0.296875 -0.234375 0.359375l-0.4375 0.96875l7.5 0l0 1.40625l-8.171875 0l-0.515625 0.828125l7.203125 0l0 5.484375l-4.53125 0l-0.515625 0.890625l3.703125 0l0.296875 -0.296875l1.109375 0.96875q0.453125 0.21875 -0.21875 0.375q-1.03125 1.4843674 -2.515625 2.7343674zm-2.828125 -2.59375q0.515625 0.890625 1.640625 1.78125q1.1875 -1.03125 1.78125 -1.78125l-3.421875 0zm-1.03125 -6.3749924l0 0.953125l5.265625 0l0 -0.953125l-5.265625 0zm0 2.140625l0 0.96875l5.265625 0l0 -0.96875l-5.265625 0zm26.265625 0l-0.296875 6.0156174q-0.140625 3.125 -2.15625 3.125l-2.21875 0l-0.21875 -1.640625l1.84375 0q0.96875 0 1.046875 -1.265625l0.296875 -4.8124924l-4.078125 0l-0.078125 0.59375q-0.515625 4.0781174 -5.859375 7.4999924l-1.125 -1.421875q4.828125 -2.75 5.34375 -5.7812424l0.15625 -0.890625l-2.828125 0l0 -1.421875l10.171875 0zm-6.671875 -5.859375q-1.78125 3.859375 -5.71875 7.046875l-1.1875 -1.40625q3.859375 -2.671875 5.640625 -6.90625l1.40625 0.890625q0.453125 0.296875 -0.140625 0.375zm9.203125 7.046875q-4.09375 -2.375 -6.015625 -7.78125l1.40625 -0.59375q1.78125 4.75 5.71875 6.828125l-1.109375 1.546875zm4.453125 -2.21875q-0.59375 0.734375 -1.046875 1.109375l-0.734375 -1.265625q2.21875 -2.296875 3.484375 -6.296875l1.328125 0.140625q0.234375 0.21875 -0.140625 0.453125l-0.21875 0.515625l1.84375 0l0.296875 -0.375l1.34375 0.890625l-0.375 0.453125l-1.265625 2.375l2.015625 0l0 11.359367q0 1.25 -1.125 1.25l-1.625 0l-0.296875 -1.40625l1.484375 0q0.296875 0 0.296875 -0.296875l0 -3.34375l-4.015625 0q0 3.046875 -1.546875 4.90625l-1.125 -0.890625q1.421875 -1.5625 1.421875 -4.9062424l0 -4.671875zm10.984375 -1.40625l1.484375 0q0.515625 0 0.59375 -0.453125l0.21875 -2.515625l-2.234375 0q-0.296875 3.484375 -3.484375 4.8125l-0.59375 -1.25q2.59375 -1.046875 2.75 -3.5625l-2.375 0l0 -1.1875l7.34375 0l-0.375 4.296875q-0.0625 1.265625 -1.25 1.265625l-1.9375 0l-0.140625 -1.40625zm1.109375 8.453117l0 3.5l-1.265625 0l0 -3.5l-3.640625 0l0 -1.40625l3.640625 0l0 -1.7031174l-1.625 0l-0.828125 1.3281174l-1.109375 -0.8124924q1.1875 -1.5625 1.484375 -3.5625l1.34375 0.21875q0.21875 0.21875 -0.15625 0.453125l-0.296875 0.953125l1.1875 0l0 -1.84375l1.1875 0q0.59375 0.0625 0.078125 0.4375l0 1.40625l2.59375 0l0 1.421875l-2.59375 0l0 1.7031174l3.265625 0l0 1.40625l-3.265625 0zm-9.796875 -11.203117q-0.296875 0.8125 -1.046875 2.15625l2.015625 0l0.953125 -2.15625l-1.921875 0zm1.484375 8.53125l1.484375 0l0 -2.078125l-1.484375 0l0 2.078125zm-1.046875 0l0 -2.078125l-1.484375 0l0 2.078125l1.484375 0zm-1.484375 -5.1875l0 1.921875l1.484375 0l0 -1.921875l-1.484375 0zm2.53125 0l0 1.921875l1.484375 0l0 -1.921875l-1.484375 0zm17.953125 1.625l0 1.046875q0 5.4843674 -2.8125 8.093742l-1.1875 -1.203125q2.515625 -2.8125 2.515625 -6.8281174l0 -7.046875l12.843735 0l0 1.40625l-11.35936 0l0 3.125l8.468735 0l0.4375 -0.375l1.265625 0.96875q0.515625 0.21875 -0.140625 0.515625q-1.1875 3.9375 -2.96875 5.7187424q1.546875 1.265625 5.484375 2.296875l-0.8125 1.78125q-3.640625 -1.109375 -5.859375 -2.890625q-2.6093597 2.15625 -5.8749847 3.046875l-0.65625 -1.71875q3.328125 -0.8125 5.2656097 -2.4375q-2.2343597 -2.3749924 -3.1249847 -5.4999924l-1.484375 0zm5.7968597 4.4531174q1.5625 -1.6249924 2.453125 -4.4531174l-5.2031097 0q0.8125 2.453125 2.7499847 4.4531174z" fill-rule="nonzero"/><path fill="#000000" d="m275.98465 116.40589q0.5 1.3125 0.9375 2.546875l2.625 0q1.53125 0 3.203125 -0.078125l0 1.3125q-1.671875 -0.0625 -3.203125 -0.0625l-9.546875 0q0 4.296875 -0.140625 6.125q-0.140625 1.8124924 -0.546875 3.7187424q-0.40625 1.890625 -1.421875 3.640625q-0.515625 -0.65625 -1.3125 -1.09375q0.953125 -1.25 1.453125 -3.46875q0.515625 -2.2187424 0.578125 -4.7656174q0.078125 -2.5625 0.015625 -5.328125l6.546875 0q-0.21875 -1.015625 -0.71875 -2.03125q0.71875 -0.15625 1.53125 -0.515625zm6.109375 6.265625q-0.71875 1.609375 -1.265625 3.140625q-0.546875 1.515625 -2.15625 5.3124924l2.046875 0q1.015625 0 2.25 -0.078125l0 1.53125q-1.234375 -0.0625 -2.25 -0.0625l-7.796875 0q-1.25 0 -2.984375 0.0625l0 -1.53125q1.671875 0.078125 2.984375 0.078125l4.296875 0q1.09375 -2.265625 1.921875 -4.7343674q0.84375 -2.484375 1.203125 -4.375q0.953125 0.515625 1.75 0.65625zm-10.265625 0.796875q1.890625 3.0 2.84375 5.2499924q-0.515625 0.296875 -1.25 0.734375q-1.453125 -3.2812424 -2.765625 -5.1718674q0.65625 -0.515625 1.171875 -0.8125zm3.5 -1.671875q1.453125 2.546875 2.546875 5.03125q-0.65625 0.359375 -1.390625 0.71875q-0.875 -2.46875 -2.328125 -5.09375q0.578125 -0.21875 1.171875 -0.65625z" fill-rule="nonzero"/><path fill="#000000" fill-opacity="0.0" d="m155.41733 0l0 373.5748" fill-rule="evenodd"/><path stroke="#000000" stroke-width="1.0" stroke-linejoin="round" stroke-linecap="butt" d="m155.41733 0l0 373.5748" fill-rule="evenodd"/><path fill="#00ff00" d="m111.57481 239.69554l43.84252 -88.944885l43.842514 88.944885z" fill-rule="evenodd"/><path stroke="#000000" stroke-width="1.0" stroke-linejoin="round" stroke-linecap="butt" d="m111.57481 239.69554l43.84252 -88.944885l43.842514 88.944885z" fill-rule="evenodd"/><path fill="#000000" fill-opacity="0.0" d="m111.57481 193.80577l105.795265 0l0 45.88977l-105.795265 0z" fill-rule="evenodd"/><path fill="#000000" d="m121.76231 213.89764q3.1875 -2.890625 4.015625 -7.9375l1.625 0.4375q0.515625 0.15625 -0.21875 0.59375q-0.15625 1.109375 -1.046875 3.265625l0.453125 0.15625q0.296875 0.21875 -0.21875 0.515625l0 10.984375l-1.484375 0l0 -9.28125q-0.890625 1.40625 -2.15625 2.59375l-0.96875 -1.328125zm16.484367 3.640625l-0.234375 1.703125q-0.296875 2.15625 -2.140625 2.15625l-4.984375 0q-1.328125 0 -1.328125 -1.265625l0 -13.953125l1.40625 0q0.75 0.078125 0.078125 0.4375l0 5.5q2.8125 -1.109375 5.1875 -2.890625l1.125 1.328125q0.515625 0.453125 -0.375 0.453125q-3.1875 1.625 -5.9375 2.734375l0 5.421875q0 0.59375 0.515625 0.59375l3.9375 0q0.8125 0 0.890625 -0.734375l0.140625 -1.78125l1.71875 0.296875zm11.421875 -11.21875q2.890625 3.640625 7.640625 5.125l-0.734375 1.703125q-5.046875 -1.84375 -7.9375 -5.859375q-1.34375 2.75 -3.71875 4.375l8.234375 0l0 1.421875l-8.3125 0l0 -1.34375q-1.328125 1.109375 -3.109375 1.9375l-1.046875 -1.421875q5.421875 -2.515625 7.125 -6.75l1.9375 0.375q0.515625 0.078125 -0.078125 0.4375zm-4.671875 15.890625l-1.484375 0l0 -7.34375l11.0625 0l0 7.125l-1.484375 0l0 -0.8125l-8.09375 0l0 1.03125zm0 -2.453125l8.09375 0l0 -3.484375l-8.09375 0l0 3.484375zm18.84375 -7.125l0 1.046875q0 5.484375 -2.8125 8.09375l-1.1875 -1.203125q2.515625 -2.8125 2.515625 -6.828125l0 -7.046875l12.84375 0l0 1.40625l-11.359375 0l0 3.125l8.46875 0l0.4375 -0.375l1.265625 0.96875q0.515625 0.21875 -0.140625 0.515625q-1.1875 3.9375 -2.96875 5.71875q1.546875 1.265625 5.484375 2.296875l-0.8125 1.78125q-3.640625 -1.109375 -5.859375 -2.890625q-2.609375 2.15625 -5.875 3.046875l-0.65625 -1.71875q3.328125 -0.8125 5.265625 -2.4375q-2.234375 -2.375 -3.125 -5.5l-1.484375 0zm5.796875 4.453125q1.5625 -1.625 2.453125 -4.453125l-5.203125 0q0.8125 2.453125 2.75 4.453125z" fill-rule="nonzero"/><path fill="#000000" d="m187.85605 205.35077q0.5 1.3125 0.9375 2.546875l2.625 0q1.53125 0 3.203125 -0.078125l0 1.3125q-1.671875 -0.0625 -3.203125 -0.0625l-9.546875 0q0 4.296875 -0.140625 6.125q-0.140625 1.8125 -0.546875 3.71875q-0.40625 1.890625 -1.421875 3.640625q-0.515625 -0.65625 -1.3125 -1.09375q0.953125 -1.25 1.453125 -3.46875q0.515625 -2.21875 0.578125 -4.765625q0.078125 -2.5625 0.015625 -5.328125l6.546875 0q-0.21875 -1.015625 -0.71875 -2.03125q0.71875 -0.15625 1.53125 -0.515625zm6.109375 6.265625q-0.71875 1.609375 -1.265625 3.140625q-0.546875 1.515625 -2.15625 5.3125l2.046875 0q1.015625 0 2.25 -0.078125l0 1.53125q-1.234375 -0.0625 -2.25 -0.0625l-7.796875 0q-1.25 0 -2.984375 0.0625l0 -1.53125q1.671875 0.078125 2.984375 0.078125l4.296875 0q1.09375 -2.265625 1.921875 -4.734375q0.84375 -2.484375 1.203125 -4.375q0.953125 0.515625 1.75 0.65625zm-10.265625 0.796875q1.890625 3.0 2.84375 5.25q-0.515625 0.296875 -1.25 0.734375q-1.453125 -3.28125 -2.765625 -5.171875q0.65625 -0.515625 1.171875 -0.8125zm3.5 -1.671875q1.453125 2.546875 2.546875 5.03125q-0.65625 0.359375 -1.390625 0.71875q-0.875 -2.46875 -2.328125 -5.09375q0.578125 -0.21875 1.171875 -0.65625z" fill-rule="nonzero"/><path fill="#000000" fill-opacity="0.0" d="m50.559055 163.84776l48.692913 0l0 153.54332l-48.692913 0z" fill-rule="evenodd"/><path fill="#000000" d="m64.98093 182.97089q0.515625 0.515625 0.96875 1.484375l-0.96875 0.515625l2.671875 0q0.890625 -1.109375 1.1875 -2.0l1.265625 0.515625q0.59375 0.296875 -0.15625 0.375q-0.515625 0.75 -0.890625 1.109375l3.484375 0l0 1.1875l-4.890625 0l0 0.96875l3.78125 0l0 1.109375l-3.78125 0l0 1.125l5.34375 0l0 1.1875l-5.34375 0l0 1.921875l-1.484375 0l0 -1.921875l-5.203121 0l0 -1.1875l5.203121 0l0 -1.125l-3.9374962 0l0 -1.109375l3.9374962 0l0 -0.96875l-4.906246 0l0 -1.1875l3.4218712 0q-0.296875 -0.59375 -0.8124962 -1.328125l1.1093712 -0.671875zm10.984375 7.578125q0.296875 0 0.4375 -1.5625l1.34375 0.671875q-0.375 2.671875 -1.1875 2.671875q-2.0 0 -2.828125 -2.828125q-0.515625 -1.78125 -0.515625 -4.296875l0 -2.375l-11.359371 0l0 -1.1875l12.843746 0l0 3.328125q0 3.125 0.375 4.15625q0.515625 1.421875 0.890625 1.421875zm-15.296871 -10.25q2.96875 -2.0 4.390621 -5.046875l1.328125 0.296875q0.75 0.078125 0.078125 0.453125l-0.8125 1.328125l10.609375 0l0 1.1875l-11.28125 0q-1.3437462 1.859375 -3.1249962 2.890625l-1.1875 -1.109375zm4.015621 0.296875l0 -1.1875l9.046875 0l0 1.1875l-9.046875 0z" fill-rule="nonzero"/><path fill="#000000" d="m60.746555 205.93964q3.1875 -2.890625 4.015621 -7.9375l1.625 0.4375q0.515625 0.15625 -0.21875 0.59375q-0.15625 1.109375 -1.046875 3.265625l0.453125 0.15625q0.296875 0.21875 -0.21875 0.515625l0 10.984375l-1.4843712 0l0 -9.28125q-0.890625 1.40625 -2.15625 2.59375l-0.96875 -1.328125zm16.484371 3.640625l-0.234375 1.703125q-0.296875 2.15625 -2.140625 2.15625l-4.984375 0q-1.328125 0 -1.328125 -1.265625l0 -13.953125l1.40625 0q0.75 0.078125 0.078125 0.4375l0 5.5q2.8125 -1.109375 5.1875 -2.890625l1.125 1.328125q0.515625 0.453125 -0.375 0.453125q-3.1875 1.625 -5.9375 2.734375l0 5.421875q0 0.59375 0.515625 0.59375l3.9375 0q0.8125 0 0.890625 -0.734375l0.140625 -1.78125l1.71875 0.296875z" fill-rule="nonzero"/><path fill="#000000" d="m74.19968 220.98651q0.734375 0 2.265625 -0.0625l0 1.375q-1.3125 -0.0625 -2.625 -0.0625l-1.671875 0l-0.953125 1.890625l0 6.78125q0 1.3125 0.078125 2.6875l-1.53125 0q0.078125 -1.375 0.078125 -2.765625l0 -4.65625q-1.3125 1.8125 -4.234375 4.21875q-0.359375 -0.578125 -1.09375 -1.15625q1.609375 -0.875 3.171875 -2.546875q1.5625 -1.6875 2.875 -4.453125l-3.34375 0q-0.734375 0 -1.46875 0.0625l0 -1.375q0.734375 0 2.046875 0.0625l6.40625 0zm-9.96875 4.96875q-0.078125 1.375 -0.078125 2.84375l0 4.140625q2.328125 1.609375 6.546875 1.65625q4.234375 0.03125 6.78125 -0.265625q-0.4375 0.875 -0.578125 1.671875q-2.984375 0.078125 -4.953125 0q-1.96875 -0.0625 -3.390625 -0.21875q-1.421875 -0.140625 -2.34375 -0.46875q-0.90625 -0.328125 -1.75 -0.828125q-0.8281212 -0.515625 -1.4531212 0.109375q-0.609375 0.609375 -1.40625 1.78125q-0.515625 -0.59375 -1.25 -1.09375q1.6875 -1.609375 2.40625 -2.265625l0 -5.828125q-0.796875 0 -2.25 0.078125l0 -1.390625q1.53125 0.078125 2.40625 0.078125l1.3124962 0zm9.25 -0.875q1.015625 1.09375 3.640625 4.21875q-0.65625 0.375 -1.3125 0.953125q-0.734375 -1.171875 -3.34375 -4.234375q0.578125 -0.4375 1.015625 -0.9375zm-10.718746 -4.890625q1.8281212 2.328125 2.3281212 3.0625q-0.65625 0.359375 -1.2968712 0.953125q-0.953125 -1.609375 -2.265625 -3.0625q0.734375 -0.515625 1.234375 -0.953125z" fill-rule="nonzero"/><path fill="#000000" d="m69.6528 256.68964q0.296875 0 0.296875 -0.296875l0 -4.296875l-2.75 0l0 0.515625l-1.484375 0l0 -7.203125l3.5 0l0.296875 -1.921875l-5.874996 0l0 7.046875q0 4.828125 -1.78125 7.578125l-1.25 -1.265625q1.546875 -2.375 1.546875 -6.3125l0 -8.46875l14.843746 0l0 1.421875l-5.703125 0l-0.53125 1.921875l4.609375 0l0 7.125l-1.484375 0l0 -0.4375l-2.453125 0l0 5.046875q0 1.1875 -1.1875 1.1875l-1.484375 0l-0.375 -1.640625l1.265625 0zm6.015625 0.59375q-1.484375 -2.078125 -2.96875 -3.40625l1.109375 -1.046875q1.9375 1.40625 3.265625 3.265625l-1.40625 1.1875zm-7.34375 -3.40625q0.59375 0.515625 -0.15625 0.359375q-1.5625 2.234375 -3.265625 3.421875l-1.0312462 -1.34375q1.7812462 -1.328125 3.1093712 -3.40625l1.34375 0.96875zm-1.125 -2.96875l6.6875 0l0 -1.640625l-6.6875 0l0 1.640625zm0 -2.828125l6.6875 0l0 -1.484375l-6.6875 0l0 1.484375z" fill-rule="nonzero"/><path fill="#000000" d="m64.82468 270.674l0 1.046875q0 5.484375 -2.8124962 8.09375l-1.1875 -1.203125q2.515625 -2.8125 2.515625 -6.828125l0 -7.046875l12.843746 0l0 1.40625l-11.359375 0l0 3.125l8.46875 0l0.4375 -0.375l1.265625 0.96875q0.515625 0.21875 -0.140625 0.515625q-1.1875 3.9375 -2.96875 5.71875q1.546875 1.265625 5.484375 2.296875l-0.8125 1.78125q-3.640625 -1.109375 -5.859375 -2.890625q-2.609375 2.15625 -5.875 3.046875l-0.65625 -1.71875q3.328125 -0.8125 5.265625 -2.4375q-2.234375 -2.375 -3.125 -5.5l-1.484375 0zm5.796875 4.453125q1.5625 -1.625 2.453125 -4.453125l-5.203125 0q0.8125 2.453125 2.75 4.453125z" fill-rule="nonzero"/><path fill="#000000" d="m69.8403 285.39276q0.5 1.3125 0.9375 2.546875l2.625 0q1.53125 0 3.203125 -0.078125l0 1.3125q-1.671875 -0.0625 -3.203125 -0.0625l-9.546871 0q0 4.296875 -0.140625 6.125q-0.140625 1.8125 -0.546875 3.71875q-0.40625 1.890625 -1.421875 3.640625q-0.515625 -0.65625 -1.3125 -1.09375q0.953125 -1.25 1.453125 -3.46875q0.515625 -2.21875 0.578125 -4.765625q0.078125 -2.5625 0.015625 -5.328125l6.546871 0q-0.21875 -1.015625 -0.71875 -2.03125q0.71875 -0.15625 1.53125 -0.515625zm6.109375 6.265625q-0.71875 1.609375 -1.265625 3.140625q-0.546875 1.515625 -2.15625 5.3125l2.046875 0q1.015625 0 2.25 -0.078125l0 1.53125q-1.234375 -0.0625 -2.25 -0.0625l-7.796875 0q-1.25 0 -2.9843712 0.0625l0 -1.53125q1.6718712 0.078125 2.9843712 0.078125l4.296875 0q1.09375 -2.265625 1.921875 -4.734375q0.84375 -2.484375 1.203125 -4.375q0.953125 0.515625 1.75 0.65625zm-10.265625 0.796875q1.890625 3.0 2.84375 5.25q-0.515625 0.296875 -1.25 0.734375q-1.453125 -3.28125 -2.765625 -5.171875q0.65625 -0.515625 1.171875 -0.8125zm3.5 -1.671875q1.453125 2.546875 2.546875 5.03125q-0.65625 0.359375 -1.390625 0.71875q-0.875 -2.46875 -2.328125 -5.09375q0.578125 -0.21875 1.171875 -0.65625z" fill-rule="nonzero"/><path fill="#000000" fill-opacity="0.0" d="m223.77165 154.48557l35.59056 0l0 199.43307l-35.59056 0z" fill-rule="evenodd"/><path fill="#000000" d="m241.3029 177.17119q0 4.453125 -5.5625 6.015625l-0.734375 -1.484375q4.59375 -1.40625 4.75 -4.078125l-4.90625 1.40625q-0.078125 0.515625 -0.375 0.21875l-0.359375 -1.703125l5.703125 -1.34375l0 -1.703125l-4.296875 0l0 -1.40625l4.296875 0l0 -2.375l-5.1875 0l0 -1.40625l5.1875 0l0 -2.90625l1.421875 0q0.59375 0.078125 0.0625 0.453125l0 10.3125zm8.765625 -7.859375l0 1.40625l-5.125 0l0 2.375l4.3125 0l0 1.40625l-4.3125 0l0 2.59375l5.859375 0l0 1.421875l-5.859375 0l0 4.296875l-1.484375 0l0 -16.40625l1.40625 0q0.59375 0.078125 0.078125 0.453125l0 2.453125l5.125 0z" fill-rule="nonzero"/><path fill="#000000" d="m238.19353 195.60869q0.515625 0.515625 0.96875 1.484375l-0.96875 0.515625l2.671875 0q0.890625 -1.109375 1.1875 -2.0l1.265625 0.515625q0.59375 0.296875 -0.15625 0.375q-0.515625 0.75 -0.890625 1.109375l3.484375 0l0 1.1875l-4.890625 0l0 0.96875l3.78125 0l0 1.109375l-3.78125 0l0 1.125l5.34375 0l0 1.1875l-5.34375 0l0 1.921875l-1.484375 0l0 -1.921875l-5.203125 0l0 -1.1875l5.203125 0l0 -1.125l-3.9375 0l0 -1.109375l3.9375 0l0 -0.96875l-4.90625 0l0 -1.1875l3.421875 0q-0.296875 -0.59375 -0.8125 -1.328125l1.109375 -0.671875zm10.984375 7.578125q0.296875 0 0.4375 -1.5625l1.34375 0.671875q-0.375 2.671875 -1.1875 2.671875q-2.0 0 -2.828125 -2.828125q-0.515625 -1.78125 -0.515625 -4.296875l0 -2.375l-11.359375 0l0 -1.1875l12.84375 0l0 3.328125q0 3.125 0.375 4.15625q0.515625 1.421875 0.890625 1.421875zm-15.296875 -10.25q2.96875 -2.0 4.390625 -5.046875l1.328125 0.296875q0.75 0.078125 0.078125 0.453125l-0.8125 1.328125l10.609375 0l0 1.1875l-11.28125 0q-1.34375 1.859375 -3.125 2.890625l-1.1875 -1.109375zm4.015625 0.296875l0 -1.1875l9.046875 0l0 1.1875l-9.046875 0z" fill-rule="nonzero"/><path fill="#000000" d="m233.95915 218.57744q3.1875 -2.890625 4.015625 -7.9375l1.625 0.4375q0.515625 0.15625 -0.21875 0.59375q-0.15625 1.109375 -1.046875 3.265625l0.453125 0.15625q0.296875 0.21875 -0.21875 0.515625l0 10.984375l-1.484375 0l0 -9.28125q-0.890625 1.40625 -2.15625 2.59375l-0.96875 -1.328125zm16.484375 3.640625l-0.234375 1.703125q-0.296875 2.15625 -2.140625 2.15625l-4.984375 0q-1.328125 0 -1.328125 -1.265625l0 -13.953125l1.40625 0q0.75 0.078125 0.078125 0.4375l0 5.5q2.8125 -1.109375 5.1875 -2.890625l1.125 1.328125q0.515625 0.453125 -0.375 0.453125q-3.1875 1.625 -5.9375 2.734375l0 5.421875q0 0.59375 0.515625 0.59375l3.9375 0q0.8125 0 0.890625 -0.734375l0.140625 -1.78125l1.71875 0.296875z" fill-rule="nonzero"/><path fill="#000000" d="m247.41228 233.62431q0.734375 0 2.265625 -0.0625l0 1.375q-1.3125 -0.0625 -2.625 -0.0625l-1.671875 0l-0.953125 1.890625l0 6.78125q0 1.3125 0.078125 2.6875l-1.53125 0q0.078125 -1.375 0.078125 -2.765625l0 -4.65625q-1.3125 1.8125 -4.234375 4.21875q-0.359375 -0.578125 -1.09375 -1.15625q1.609375 -0.875 3.171875 -2.546875q1.5625 -1.6875 2.875 -4.453125l-3.34375 0q-0.734375 0 -1.46875 0.0625l0 -1.375q0.734375 0 2.046875 0.0625l6.40625 0zm-9.96875 4.96875q-0.078125 1.375 -0.078125 2.84375l0 4.140625q2.328125 1.609375 6.546875 1.65625q4.234375 0.03125 6.78125 -0.265625q-0.4375 0.875 -0.578125 1.671875q-2.984375 0.078125 -4.953125 0q-1.96875 -0.0625 -3.390625 -0.21875q-1.421875 -0.140625 -2.34375 -0.46875q-0.90625 -0.328125 -1.75 -0.828125q-0.828125 -0.515625 -1.453125 0.109375q-0.609375 0.609375 -1.40625 1.78125q-0.515625 -0.59375 -1.25 -1.09375q1.6875 -1.609375 2.40625 -2.265625l0 -5.828125q-0.796875 0 -2.25 0.078125l0 -1.390625q1.53125 0.078125 2.40625 0.078125l1.3125 0zm9.25 -0.875q1.015625 1.09375 3.640625 4.21875q-0.65625 0.375 -1.3125 0.953125q-0.734375 -1.171875 -3.34375 -4.234375q0.578125 -0.4375 1.015625 -0.9375zm-10.71875 -4.890625q1.828125 2.328125 2.328125 3.0625q-0.65625 0.359375 -1.296875 0.953125q-0.953125 -1.609375 -2.265625 -3.0625q0.734375 -0.515625 1.234375 -0.953125z" fill-rule="nonzero"/><path fill="#000000" d="m242.8654 269.32742q0.296875 0 0.296875 -0.296875l0 -4.296875l-2.75 0l0 0.515625l-1.484375 0l0 -7.203125l3.5 0l0.296875 -1.921875l-5.875 0l0 7.046875q0 4.828125 -1.78125 7.578125l-1.25 -1.265625q1.546875 -2.375 1.546875 -6.3125l0 -8.468735l14.84375 0l0 1.4218597l-5.703125 0l-0.53125 1.921875l4.609375 0l0 7.125l-1.484375 0l0 -0.4375l-2.453125 0l0 5.046875q0 1.1875 -1.1875 1.1875l-1.484375 0l-0.375 -1.640625l1.265625 0zm6.015625 0.59375q-1.484375 -2.078125 -2.96875 -3.40625l1.109375 -1.046875q1.9375 1.40625 3.265625 3.265625l-1.40625 1.1875zm-7.34375 -3.40625q0.59375 0.515625 -0.15625 0.359375q-1.5625 2.234375 -3.265625 3.421875l-1.03125 -1.34375q1.78125 -1.328125 3.109375 -3.40625l1.34375 0.96875zm-1.125 -2.96875l6.6875 0l0 -1.640625l-6.6875 0l0 1.640625zm0 -2.828125l6.6875 0l0 -1.484375l-6.6875 0l0 1.484375z" fill-rule="nonzero"/><path fill="#000000" d="m238.03728 283.3118l0 1.046875q0 5.484375 -2.8125 8.09375l-1.1875 -1.203125q2.515625 -2.8125 2.515625 -6.828125l0 -7.046875l12.84375 0l0 1.40625l-11.359375 0l0 3.125l8.46875 0l0.4375 -0.375l1.265625 0.96875q0.515625 0.21875 -0.140625 0.515625q-1.1875 3.9375 -2.96875 5.71875q1.546875 1.265625 5.484375 2.296875l-0.8125 1.78125q-3.640625 -1.109375 -5.859375 -2.890625q-2.609375 2.15625 -5.875 3.046875l-0.65625 -1.71875q3.328125 -0.8125 5.265625 -2.4375q-2.234375 -2.375 -3.125 -5.5l-1.484375 0zm5.796875 4.453125q1.5625 -1.625 2.453125 -4.453125l-5.203125 0q0.8125 2.453125 2.75 4.453125z" fill-rule="nonzero"/><path fill="#000000" d="m243.0529 298.03055q0.5 1.3125 0.9375 2.546875l2.625 0q1.53125 0 3.203125 -0.078125l0 1.3125q-1.671875 -0.0625 -3.203125 -0.0625l-9.546875 0q0 4.296875 -0.140625 6.125q-0.140625 1.8125 -0.546875 3.71875q-0.40625 1.890625 -1.421875 3.640625q-0.515625 -0.65625 -1.3125 -1.09375q0.953125 -1.25 1.453125 -3.46875q0.515625 -2.21875 0.578125 -4.765625q0.078125 -2.5625 0.015625 -5.328125l6.546875 0q-0.21875 -1.015625 -0.71875 -2.03125q0.71875 -0.15625 1.53125 -0.515625zm6.109375 6.265625q-0.71875 1.609375 -1.265625 3.140625q-0.546875 1.515625 -2.15625 5.3125l2.046875 0q1.015625 0 2.25 -0.078125l0 1.53125q-1.234375 -0.0625 -2.25 -0.0625l-7.796875 0q-1.25 0 -2.984375 0.0625l0 -1.53125q1.671875 0.078125 2.984375 0.078125l4.296875 0q1.09375 -2.265625 1.921875 -4.734375q0.84375 -2.484375 1.203125 -4.375q0.953125 0.515625 1.75 0.65625zm-10.265625 0.796875q1.890625 3.0 2.84375 5.25q-0.515625 0.296875 -1.25 0.734375q-1.453125 -3.28125 -2.765625 -5.171875q0.65625 -0.515625 1.171875 -0.8125zm3.5 -1.671875q1.453125 2.546875 2.546875 5.03125q-0.65625 0.359375 -1.390625 0.71875q-0.875 -2.46875 -2.328125 -5.09375q0.578125 -0.21875 1.171875 -0.65625z" fill-rule="nonzero"/><path fill="#00ffff" d="m117.03674 344.1391l17.086609 -68.346436l48.063004 0l17.086609 68.346436z" fill-rule="evenodd"/><path stroke="#000000" stroke-width="1.0" stroke-linejoin="round" stroke-linecap="butt" d="m117.03674 344.1391l17.086609 -68.346436l48.063004 0l17.086609 68.346436z" fill-rule="evenodd"/><path fill="#000000" fill-opacity="0.0" d="m108.614174 298.24933l105.79528 0l0 45.88977l-105.79528 0z" fill-rule="evenodd"/><path fill="#000000" d="m132.16104 317.29434l-0.296875 6.015625q-0.140625 3.125 -2.15625 3.125l-2.2187424 0l-0.21875 -1.640625l1.8437424 0q0.96875 0 1.046875 -1.265625l0.296875 -4.8125l-4.0781174 0l-0.078125 0.59375q-0.515625 4.078125 -5.859375 7.5l-1.125 -1.421875q4.828125 -2.75 5.34375 -5.78125l0.15625 -0.890625l-2.828125 0l0 -1.421875l10.171867 0zm-6.6718674 -5.859375q-1.78125 3.859375 -5.71875 7.046875l-1.1875 -1.40625q3.859375 -2.671875 5.640625 -6.90625l1.40625 0.890625q0.453125 0.296875 -0.140625 0.375zm9.203117 7.046875q-4.09375 -2.375 -6.015625 -7.78125l1.40625 -0.59375q1.78125 4.75 5.71875 6.828125l-1.109375 1.546875zm4.453125 -2.21875q-0.59375 0.734375 -1.046875 1.109375l-0.734375 -1.265625q2.21875 -2.296875 3.484375 -6.296875l1.328125 0.140625q0.234375 0.21875 -0.140625 0.453125l-0.21875 0.515625l1.84375 0l0.296875 -0.375l1.34375 0.890625l-0.375 0.453125l-1.265625 2.375l2.015625 0l0 11.359375q0 1.25 -1.125 1.25l-1.625 0l-0.296875 -1.40625l1.484375 0q0.296875 0 0.296875 -0.296875l0 -3.34375l-4.015625 0q0 3.046875 -1.546875 4.90625l-1.125 -0.890625q1.421875 -1.5625 1.421875 -4.90625l0 -4.671875zm10.984375 -1.40625l1.484375 0q0.515625 0 0.59375 -0.453125l0.21875 -2.515625l-2.234375 0q-0.296875 3.484375 -3.484375 4.8125l-0.59375 -1.25q2.59375 -1.046875 2.75 -3.5625l-2.375 0l0 -1.1875l7.34375 0l-0.375 4.296875q-0.0625 1.265625 -1.25 1.265625l-1.9375 0l-0.140625 -1.40625zm1.109375 8.453125l0 3.5l-1.265625 0l0 -3.5l-3.640625 0l0 -1.40625l3.640625 0l0 -1.703125l-1.625 0l-0.828125 1.328125l-1.109375 -0.8125q1.1875 -1.5625 1.484375 -3.5625l1.34375 0.21875q0.21875 0.21875 -0.15625 0.453125l-0.296875 0.953125l1.1875 0l0 -1.84375l1.1875 0q0.59375 0.0625 0.078125 0.4375l0 1.40625l2.59375 0l0 1.421875l-2.59375 0l0 1.703125l3.265625 0l0 1.40625l-3.265625 0zm-9.796875 -11.203125q-0.296875 0.8125 -1.046875 2.15625l2.015625 0l0.953125 -2.15625l-1.921875 0zm1.484375 8.53125l1.484375 0l0 -2.078125l-1.484375 0l0 2.078125zm-1.046875 0l0 -2.078125l-1.484375 0l0 2.078125l1.484375 0zm-1.484375 -5.1875l0 1.921875l1.484375 0l0 -1.921875l-1.484375 0zm2.53125 0l0 1.921875l1.484375 0l0 -1.921875l-1.484375 0zm17.953125 1.625l0 1.046875q0 5.484375 -2.8125 8.09375l-1.1875 -1.203125q2.515625 -2.8125 2.515625 -6.828125l0 -7.046875l12.84375 0l0 1.40625l-11.359375 0l0 3.125l8.46875 0l0.4375 -0.375l1.265625 0.96875q0.515625 0.21875 -0.140625 0.515625q-1.1875 3.9375 -2.96875 5.71875q1.546875 1.265625 5.484375 2.296875l-0.8125 1.78125q-3.640625 -1.109375 -5.859375 -2.890625q-2.609375 2.15625 -5.875 3.046875l-0.65625 -1.71875q3.328125 -0.8125 5.265625 -2.4375q-2.234375 -2.375 -3.125 -5.5l-1.484375 0zm5.796875 4.453125q1.5625 -1.625 2.453125 -4.453125l-5.203125 0q0.8125 2.453125 2.75 4.453125z" fill-rule="nonzero"/><path fill="#000000" d="m184.89542 309.79434q0.5 1.3125 0.9375 2.546875l2.625 0q1.53125 0 3.203125 -0.078125l0 1.3125q-1.671875 -0.0625 -3.203125 -0.0625l-9.546875 0q0 4.296875 -0.140625 6.125q-0.140625 1.8125 -0.546875 3.71875q-0.40625 1.890625 -1.421875 3.640625q-0.515625 -0.65625 -1.3125 -1.09375q0.953125 -1.25 1.453125 -3.46875q0.515625 -2.21875 0.578125 -4.765625q0.078125 -2.5625 0.015625 -5.328125l6.546875 0q-0.21875 -1.015625 -0.71875 -2.03125q0.71875 -0.15625 1.53125 -0.515625zm6.109375 6.265625q-0.71875 1.609375 -1.265625 3.140625q-0.546875 1.515625 -2.15625 5.3125l2.046875 0q1.015625 0 2.25 -0.078125l0 1.53125q-1.234375 -0.0625 -2.25 -0.0625l-7.796875 0q-1.25 0 -2.984375 0.0625l0 -1.53125q1.671875 0.078125 2.984375 0.078125l4.296875 0q1.09375 -2.265625 1.921875 -4.734375q0.84375 -2.484375 1.203125 -4.375q0.953125 0.515625 1.75 0.65625zm-10.265625 0.796875q1.890625 3.0 2.84375 5.25q-0.515625 0.296875 -1.25 0.734375q-1.453125 -3.28125 -2.765625 -5.171875q0.65625 -0.515625 1.171875 -0.8125zm3.5 -1.671875q1.453125 2.546875 2.546875 5.03125q-0.65625 0.359375 -1.390625 0.71875q-0.875 -2.46875 -2.328125 -5.09375q0.578125 -0.21875 1.171875 -0.65625z" fill-rule="nonzero"/></g></svg>